<svg xmlns="http://www.w3.org/2000/svg" width="210" height="210" viewBox="0 -5 210 210" fill="none">
    <path
        d="M136.313 96.1358C131.265 96.1358 127.164 92.0345 127.164 86.9865C127.164 81.9745 131.265 77.8732 136.313 77.8732C141.325 77.8732 145.427 81.9745 145.427 86.9865C145.427 92.0345 141.325 96.1358 136.313 96.1358ZM66.7679 77.8732C71.8159 77.8732 75.9172 81.9745 75.9172 86.9865C75.9172 92.0345 71.8159 96.1358 66.7679 96.1358C61.7545 96.1358 57.6545 92.0345 57.6545 86.9865C57.6545 81.9745 61.7545 77.8732 66.7679 77.8732ZM192.223 74.3332C191.207 71.3185 190.015 68.3385 188.683 65.4638C188.332 64.6225 187.912 63.7825 187.491 62.9412C179.008 45.8705 165.337 31.7785 148.512 22.6998C147.881 22.3492 147.215 21.9985 146.549 21.6825C143.569 20.1412 140.484 18.7732 137.329 17.5825H137.295C126.919 13.6212 115.703 11.4478 103.924 11.4478C91.7612 11.4478 80.1585 13.7612 69.5372 17.9678C66.9785 18.9492 64.5239 20.0358 62.1052 21.2625C61.3692 21.6132 60.6692 21.9638 59.9319 22.3838C43.6679 31.0078 30.2772 44.2918 21.6199 60.4865C21.3385 60.9772 21.0932 61.4678 20.8479 61.9945C19.9372 63.7465 19.0959 65.5345 18.3239 67.3572C13.5225 78.4345 10.8585 90.6318 10.8585 103.463C10.8585 154.289 52.5359 195.476 103.924 195.476C155.312 195.476 196.991 154.289 196.991 103.463C196.991 93.2972 195.308 83.4812 192.223 74.3332"
        fill="#ECB559" />
    <path
        d="M77.605 41.5551C65.9824 24.1284 51.2024 4.97644 31.9037 5.80444C15.8584 6.49377 2.10637 23.2151 1.31303 41.3338C0.518365 59.4524 11.693 76.9498 77.605 41.5551Z"
        fill="#ECB559" />
    <path
        d="M132.045 49.3556C134.753 32.4263 146.725 16.313 163.412 12.3796C180.1 8.44498 199.87 20.101 201.396 37.1783C202.838 53.3463 189.37 66.8543 175.758 75.697C172.873 77.5703 169.441 79.4263 166.16 78.3943C164.79 77.9636 163.625 77.0663 162.49 76.1876C150.922 67.2196 139.353 58.2516 132.045 49.3556Z"
        fill="#ECB559" />
    <path
        d="M101.82 166.873C101.792 166.873 101.766 166.869 101.738 166.869C98.5362 166.825 95.9776 164.193 96.0216 160.991L96.4429 130.967C96.4882 127.766 99.1816 125.25 102.32 125.254C105.523 125.298 108.082 127.931 108.036 131.131L107.616 161.157C107.571 164.329 104.983 166.873 101.82 166.873Z"
        fill="black" />
    <path
        d="M122.104 115.008H84.0135C80.8108 115.008 78.2161 112.41 78.2161 109.21C78.2161 106.008 80.8108 103.411 84.0135 103.411H122.104C125.307 103.411 127.901 106.008 127.901 109.21C127.901 112.41 125.307 115.008 122.104 115.008Z"
        fill="black" />
    <path
        d="M101.822 136.475C100.157 136.475 98.5033 135.759 97.3566 134.376L79.5513 112.91C77.5073 110.446 77.8473 106.792 80.3126 104.75C82.774 102.695 86.4286 103.042 88.4753 105.51L106.281 126.976C108.325 129.44 107.983 133.092 105.519 135.136C104.437 136.036 103.126 136.475 101.822 136.475Z"
        fill="black" />
    <path
        d="M104.295 136.475C102.991 136.475 101.681 136.036 100.598 135.136C98.1339 133.092 97.7925 129.44 99.8365 126.976L117.642 105.51C119.686 103.042 123.341 102.695 125.805 104.75C128.27 106.792 128.61 110.446 126.566 112.91L108.761 134.376C107.614 135.759 105.961 136.475 104.295 136.475Z"
        fill="black" />
    <path
        d="M16.0652 67.832C14.4065 67.832 12.7612 67.1254 11.6145 65.7547C-2.00949 49.468 -5.68149 23.904 11.7572 9.31603C28.7012 -4.85863 54.0158 -2.60263 68.1932 14.34C70.2465 16.7947 69.9212 20.452 67.4652 22.5067C65.0105 24.564 61.3532 24.2347 59.2998 21.7787C49.2265 9.74137 31.2385 8.13737 19.1958 18.2107C7.32384 28.14 10.5398 46.4 20.5078 58.316C22.5625 60.7707 22.2372 64.428 19.7812 66.4814C18.6958 67.3894 17.3758 67.832 16.0652 67.832Z"
        fill="black" />
    <path
        d="M190.204 74.7075C188.894 74.7075 187.574 74.2649 186.488 73.3569C184.032 71.3035 183.707 67.6462 185.762 65.1915C195.784 53.2102 197.92 32.2195 185.778 22.0609C173.734 11.9862 155.747 13.5849 145.672 25.6302C143.616 28.0862 139.963 28.4089 137.507 26.3569C135.051 24.3035 134.726 20.6462 136.779 18.1915C150.952 1.24486 176.274 -1.00581 193.216 13.1675C201.383 20.0009 205.799 30.3969 205.646 42.4462C205.51 53.4435 201.503 64.4449 194.655 72.6302C193.508 74.0009 191.862 74.7075 190.204 74.7075Z"
        fill="black" />
    <path
        d="M102.029 171.114C79.9384 171.114 61.965 153.139 61.965 131.05C61.965 127.848 64.5597 125.25 67.761 125.25C70.9637 125.25 73.5584 127.848 73.5584 131.05C73.5584 146.747 86.3304 159.516 102.029 159.516C117.728 159.516 130.5 146.747 130.5 131.05C130.5 127.848 133.094 125.25 136.297 125.25C139.498 125.25 142.093 127.848 142.093 131.05C142.093 153.139 124.12 171.114 102.029 171.114Z"
        fill="black" />
    <path
        d="M16.677 104.303C16.677 88.5994 20.9183 73.8767 28.385 61.2581V61.2234C37.253 46.0447 50.6783 33.9167 66.7677 26.5914C77.529 21.6834 89.4823 18.9487 102.032 18.9487C115.948 18.9487 129.128 22.3141 140.765 28.2381C158.888 37.5274 173.294 53.0554 181.006 72.0194C185.142 81.9741 187.385 92.8767 187.385 104.303C187.385 151.379 149.108 189.658 102.032 189.658C54.9543 189.658 16.677 151.379 16.677 104.303ZM193.87 73.3514C192.818 70.1261 191.592 67.0074 190.154 63.9567C189.734 62.9407 189.244 61.9594 188.753 60.9781C180.305 44.1874 167.16 30.1661 151.036 20.7021C150.369 20.2807 149.669 19.8607 149.002 19.5101C146.022 17.8274 142.904 16.3207 139.749 14.9887C128.146 10.0807 115.386 7.34606 102.032 7.34606C89.9023 7.34606 78.301 9.59007 67.609 13.6914C64.489 14.8474 61.4743 16.1794 58.5303 17.6874C57.829 18.0381 57.093 18.3887 56.3917 18.7741C40.5837 27.2567 27.3677 39.9807 18.325 55.4394C17.133 57.4381 16.0463 59.5047 15.029 61.6087H14.9943C14.153 63.2914 13.3823 64.9741 12.681 66.7261C7.77301 78.2941 5.07434 90.9834 5.07434 104.303C5.07434 157.759 48.5757 201.261 102.032 201.261C155.488 201.261 198.988 157.759 198.988 104.303C198.988 93.4714 197.201 83.0607 193.87 73.3514Z"
        fill="black" />
    <path
        d="M145.427 86.9871C145.427 92.0351 141.326 96.1365 136.314 96.1365C131.266 96.1365 127.164 92.0351 127.164 86.9871C127.164 81.9751 131.266 77.8738 136.314 77.8738C141.326 77.8738 145.427 81.9751 145.427 86.9871Z"
        fill="#212323" />
    <path
        d="M75.9167 86.9871C75.9167 92.0351 71.8153 96.1365 66.7673 96.1365C61.7553 96.1365 57.654 92.0351 57.654 86.9871C57.654 81.9751 61.7553 77.8738 66.7673 77.8738C71.8153 77.8738 75.9167 81.9751 75.9167 86.9871Z"
        fill="#212323" />
</svg>